<?xml version="1.0" encoding="UTF-8" standalone="no"?>
<!DOCTYPE svg PUBLIC "-//W3C//DTD SVG 1.1//EN" "http://www.w3.org/Graphics/SVG/1.1/DTD/svg11.dtd">
<svg width="100%" height="100%" viewBox="0 0 1043 1035" version="1.1" xmlns="http://www.w3.org/2000/svg" xmlns:xlink="http://www.w3.org/1999/xlink" xml:space="preserve" xmlns:serif="http://www.serif.com/" style="fill-rule:evenodd;clip-rule:evenodd;stroke-linecap:round;stroke-linejoin:round;stroke-miterlimit:1.5;">
    <g transform="matrix(1,0,0,1,-502.73,-1216.24)">
        <g transform="matrix(1,0,0,1,0,1190.02)">
            <g transform="matrix(1.14709,0,0,1.14709,-150.611,-9.77141)">
                <g transform="matrix(-7.7102,9.44227e-16,-9.44227e-16,-7.7102,5043.81,1159.75)">
                    <path d="M521.376,50.91L521.385,73.497L501.164,86L500.88,111.036L521.385,122.044L521.385,144.313L480.374,117.19L480.374,78.14L521.376,50.91ZM546.312,128.496L534.175,136.133L528.708,118.937L534.323,115.441L546.312,128.496ZM541.983,109.447L562.376,109.457L562.376,118.279L552.558,124.518L540.935,111.597L541.38,110.652L541.983,109.447ZM562.052,101.833L543.853,101.637L543.754,94.956L562.052,95.006L562.052,101.833ZM562.376,78.14L562.376,87.788L541.983,87.71L541.401,86.377L540.921,85.344L553.841,72.421L562.376,78.14ZM545.689,66.959L533.563,80.143L528.145,76.151L533.651,58.894L545.689,66.959Z" style="fill:none;stroke:white;stroke-width:4.07px;"/>
                    <path d="M521.376,50.91L521.385,73.497L501.164,86L500.88,111.036L521.385,122.044L521.385,144.313L480.374,117.19L480.374,78.14L521.376,50.91ZM546.312,128.496L534.175,136.133L528.708,118.937L534.323,115.441L546.312,128.496ZM541.983,109.447L562.376,109.457L562.376,118.279L552.558,124.518L540.935,111.597L541.38,110.652L541.983,109.447ZM562.052,101.833L543.853,101.637L543.754,94.956L562.052,95.006L562.052,101.833ZM562.376,78.14L562.376,87.788L541.983,87.71L541.401,86.377L540.921,85.344L553.841,72.421L562.376,78.14ZM545.689,66.959L533.563,80.143L528.145,76.151L533.651,58.894L545.689,66.959Z" style="fill:url(#_Linear1);"/>
                    <path d="M521.376,50.91L521.385,73.497L501.164,86L500.774,110.787L521.385,122.044L521.385,144.313L480.374,117.19L480.374,78.14L521.376,50.91ZM546.312,128.449L534.143,136.133L528.708,118.864L534.323,115.441L546.312,128.449ZM541.983,109.447L562.376,109.457L562.376,118.279L552.558,124.518L540.935,111.597L541.983,111.036L541.983,109.447ZM562.052,101.833L543.853,101.637L543.754,94.956L562.052,95.006L562.052,101.833ZM562.376,78.14L562.376,87.788L541.983,87.71L541.983,86L540.921,85.344L553.841,72.421L562.376,78.14ZM545.689,66.959L533.563,80.143L528.145,76.151L533.651,58.894L545.689,66.959Z" style="fill:none;stroke:rgb(36,36,36);stroke-width:1px;"/>
                    <g transform="matrix(-0.268377,-3.28668e-17,3.28668e-17,-0.268377,608.541,236.784)">
                        <path d="M378.23,475.845L320.756,445.63L270.784,475.61L324.748,505.632L356.104,487.514L325.73,471.19L319.786,474.782L342.195,487.082L325.335,496.686L283.359,474.453L320.4,451.791L371.938,479.007L378.23,475.845Z" style="fill:none;stroke:white;stroke-width:7px;stroke-linejoin:miter;stroke-miterlimit:20;"/>
                        <path d="M378.23,475.845L320.756,445.63L270.784,475.61L324.748,505.632L356.104,487.514L325.73,471.19L319.786,474.782L342.195,487.082L325.335,496.686L283.359,474.453L320.4,451.791L371.938,479.007L378.23,475.845Z" style="fill:rgb(36,36,36);"/>
                    </g>
                    <g transform="matrix(-26.5725,14.3763,3.2542e-15,-26.5725,522.205,79.5179)">
                        <path d="M0.079,0.018L0.079,-0.688L0.166,-0.691L0.168,-0.086L0.619,-0.103L0.617,-0.015L0.079,0.018Z" style="fill:none;fill-rule:nonzero;stroke:white;stroke-width:0.07px;stroke-linecap:butt;stroke-linejoin:miter;stroke-miterlimit:20;"/>
                        <path d="M0.079,0.018L0.079,-0.688L0.166,-0.691L0.168,-0.086L0.619,-0.103L0.617,-0.015L0.079,0.018Z" style="fill:rgb(36,36,36);fill-rule:nonzero;"/>
                    </g>
                    <g transform="matrix(-25.845,-13.7306,3.1651e-15,-25.845,537.912,88.6831)">
                        <path d="M0.256,0.036L0.259,-0.633L0.035,-0.653L0.035,-0.727L0.595,-0.715L0.595,-0.618L0.351,-0.622L0.354,0.051L0.256,0.036Z" style="fill:none;fill-rule:nonzero;stroke:white;stroke-width:0.05px;stroke-linecap:butt;stroke-linejoin:miter;stroke-miterlimit:20;"/>
                        <path d="M0.256,0.036L0.259,-0.633L0.035,-0.653L0.035,-0.727L0.595,-0.715L0.595,-0.618L0.351,-0.622L0.354,0.051L0.256,0.036Z" style="fill:rgb(36,36,36);fill-rule:nonzero;"/>
                    </g>
                </g>
                <g transform="matrix(0.716137,0,0,0.795571,105.765,-750.599)">
                    <text x="651.606px" y="2085.73px" style="font-family:'BolsterBold';font-weight:600;font-size:119.498px;fill:none;stroke:white;stroke-width:14.97px;stroke-linecap:butt;stroke-miterlimit:2;">The Gaming League</text>
                    <text x="651.606px" y="2085.73px" style="font-family:'BolsterBold';font-weight:600;font-size:119.498px;fill:rgb(36,36,36);">The Gaming League</text>
                </g>
            </g>
        </g>
    </g>
    <defs>
        <linearGradient id="_Linear1" x1="0" y1="0" x2="1" y2="0" gradientUnits="userSpaceOnUse" gradientTransform="matrix(82.0025,-36.8781,36.8781,82.0025,480.374,116.983)"><stop offset="0" style="stop-color:rgb(168,82,183);stop-opacity:1"/><stop offset="0.14" style="stop-color:rgb(148,73,186);stop-opacity:1"/><stop offset="0.32" style="stop-color:rgb(104,53,192);stop-opacity:1"/><stop offset="0.69" style="stop-color:rgb(81,102,211);stop-opacity:1"/><stop offset="0.85" style="stop-color:rgb(89,198,243);stop-opacity:1"/><stop offset="1" style="stop-color:rgb(92,231,254);stop-opacity:1"/></linearGradient>
    </defs>
</svg>
